<?xml version="1.0" encoding="UTF-8"?>
<!--Generator: Apple Native CoreSVG 232.5-->
<!DOCTYPE svg
PUBLIC "-//W3C//DTD SVG 1.1//EN"
       "http://www.w3.org/Graphics/SVG/1.1/DTD/svg11.dtd">
<svg version="1.1" xmlns="http://www.w3.org/2000/svg" xmlns:xlink="http://www.w3.org/1999/xlink" width="20.5381" height="20.1812">
 <g>
  <rect height="20.1812" opacity="0" width="20.5381" x="0" y="0"/>
  <path d="M20.1767 10.0875C20.1767 15.606 15.6141 20.175 10.0875 20.175C4.5707 20.175 0 15.606 0 10.0875C0 4.56094 4.56269 0 10.0795 0C15.606 0 20.1767 4.56094 20.1767 10.0875ZM8.47461 8.31249C8.01699 8.31249 7.66133 8.6664 7.66133 9.10097C7.66133 9.56835 8.01699 9.89921 8.47461 9.89921L9.49961 9.89921L9.49961 14.1234L8.29804 14.1234C7.83594 14.1234 7.47851 14.4773 7.47851 14.9102C7.47851 15.3793 7.83594 15.7102 8.29804 15.7102L12.4092 15.7102C12.873 15.7102 13.2287 15.3793 13.2287 14.9102C13.2287 14.4773 12.873 14.1234 12.4092 14.1234L11.285 14.1234L11.285 9.33241C11.285 8.7205 10.9834 8.31249 10.4025 8.31249ZM8.63379 5.34706C8.63379 6.12265 9.25664 6.74726 10.026 6.74726C10.7953 6.74726 11.4101 6.12265 11.4101 5.34706C11.4101 4.56093 10.7953 3.94336 10.026 3.94336C9.25664 3.94336 8.63379 4.56093 8.63379 5.34706Z" fill="#ffffff" fill-opacity="0.85"/>
 </g>
</svg>
